<?xml version="1.0" standalone="no"?>
<!DOCTYPE svg PUBLIC "-//W3C//DTD SVG 20010904//EN"
 "http://www.w3.org/TR/2001/REC-SVG-20010904/DTD/svg10.dtd">
<svg version="1.0" xmlns="http://www.w3.org/2000/svg"
 width="177.000000pt" height="177.000000pt" viewBox="0 0 177.000000 177.000000"
 preserveAspectRatio="xMidYMid meet">
<metadata>
Created by potrace 1.14, written by Peter Selinger 2001-2017
</metadata>
<g transform="translate(0.000000,177.000000) scale(0.100000,-0.100000)"
fill="#000000" stroke="none">
<path d="M721 1409 c-57 -32 -107 -59 -112 -59 -5 0 -9 -4 -9 -10 0 -5 -4 -10
-9 -10 -12 0 -150 -78 -173 -98 -17 -15 -15 -37 3 -27 5 4 9 2 9 -2 0 -5 19
-19 43 -31 41 -21 53 -28 150 -85 26 -15 51 -26 56 -23 11 7 3 77 -11 94 -7 7
-29 22 -50 33 -22 11 -38 25 -36 30 2 6 21 20 43 32 22 12 42 25 45 28 3 3 20
12 38 20 17 8 32 17 32 21 0 4 6 5 13 3 9 -4 12 -49 12 -179 0 -96 -2 -176 -5
-178 -15 -11 -66 -43 -70 -43 -3 0 -23 -11 -45 -25 -80 -50 -194 -112 -196
-108 -1 2 -2 49 -3 106 -1 71 2 102 10 102 6 0 31 -11 56 -25 39 -22 48 -23
80 -13 64 19 59 36 -22 79 -25 13 -47 26 -50 29 -4 4 -29 18 -115 64 -11 6
-23 15 -26 20 -16 22 -21 -32 -21 -238 -1 -226 3 -266 25 -262 20 3 81 38 89
50 4 6 8 7 8 2 0 -5 8 -2 18 6 9 8 43 29 74 46 117 63 253 146 265 161 19 24
18 537 0 544 -8 3 -60 -22 -116 -54z"/>
<path d="M943 1463 c-19 -7 -18 -521 0 -544 7 -10 28 -26 47 -37 19 -10 55
-31 80 -46 25 -15 53 -29 63 -33 9 -3 17 -8 17 -12 0 -4 16 -13 35 -21 19 -8
35 -17 35 -20 0 -3 16 -12 35 -20 19 -8 35 -18 35 -22 0 -5 5 -6 10 -3 6 3 10
2 10 -2 0 -13 90 -54 101 -47 6 3 9 13 8 22 -1 10 -1 22 0 27 6 41 -1 441 -7
447 -6 6 -15 3 -23 -4 -8 -8 -39 -27 -69 -44 -30 -16 -56 -32 -58 -36 -2 -5
-8 -8 -12 -8 -5 0 -34 -15 -65 -34 l-56 -34 46 -22 c37 -18 48 -20 60 -10 8 7
15 9 15 6 0 -4 12 1 28 12 58 40 58 40 57 -74 -1 -57 -4 -106 -8 -110 -4 -4
-15 0 -25 9 -10 10 -21 17 -25 17 -9 0 -251 142 -257 151 -4 5 -5 341 -1 357
1 2 16 -5 34 -16 17 -11 48 -28 67 -39 19 -10 48 -27 64 -38 l28 -19 -46 -23
c-25 -13 -46 -28 -46 -34 0 -6 -4 -7 -10 -4 -6 3 -10 -5 -10 -19 0 -13 -2 -30
-5 -38 -3 -7 -1 -19 4 -27 7 -10 32 1 117 50 60 35 122 70 137 78 22 12 25 17
15 27 -19 18 -255 154 -267 154 -6 0 -11 5 -11 11 0 5 -4 8 -9 5 -5 -3 -12 1
-15 10 -4 9 -9 14 -13 11 -3 -3 -25 7 -49 23 -23 17 -44 30 -46 29 -2 0 -9 -3
-15 -6z"/>
<path d="M825 812 c-27 -15 -56 -33 -63 -39 -7 -7 -17 -13 -22 -13 -6 0 -237
-133 -308 -178 -14 -9 -6 -42 9 -42 5 0 28 -11 50 -26 22 -14 55 -33 72 -43
18 -10 77 -44 132 -76 118 -69 148 -85 156 -85 5 0 6 296 1 323 -1 5 -20 -6
-42 -23 -39 -31 -40 -34 -40 -91 0 -32 -3 -59 -6 -59 -17 0 -184 103 -179 110
5 8 41 29 230 134 10 6 25 17 33 24 23 21 60 13 127 -28 36 -22 67 -40 69 -40
2 0 34 -18 70 -40 36 -22 70 -40 76 -40 17 0 11 -20 -7 -27 -10 -4 -20 -9 -23
-13 -7 -8 -136 -80 -145 -80 -4 0 -5 11 -3 25 3 14 2 25 -2 25 -3 0 -5 13 -2
30 3 23 -3 36 -27 60 -51 52 -56 41 -57 -126 -1 -82 1 -152 3 -156 4 -8 71 23
114 53 14 10 29 16 33 12 3 -3 6 -1 6 5 0 6 10 14 22 18 12 3 26 11 32 16 26
21 125 75 130 70 3 -3 6 0 6 6 0 7 7 12 15 12 8 0 15 3 15 8 0 4 14 13 30 20
31 14 35 20 22 38 -8 13 -217 134 -231 134 -5 0 -11 4 -13 8 -5 12 -203 122
-219 122 -8 0 -36 -13 -64 -28z"/>
</g>
</svg>
